<?xml version="1.0" encoding="utf-8"?><svg viewBox="0 0 100 100" xmlns="http://www.w3.org/2000/svg" xmlns:xlink="http://www.w3.org/1999/xlink"><style>:root>svg{display:none}:root>svg:target{display:block}</style><svg viewBox="0 0 15 21" id="address" xmlns="http://www.w3.org/2000/svg"><path d="M7.568 4.602a2.688 2.688 0 00-2.684 2.685A2.688 2.688 0 007.568 9.97a2.688 2.688 0 002.685-2.684 2.688 2.688 0 00-2.685-2.685zm0 4.602a1.92 1.92 0 01-1.917-1.917 1.92 1.92 0 011.917-1.918 1.92 1.92 0 011.918 1.918 1.92 1.92 0 01-1.918 1.917z"/><path d="M12.701 2.154A7.307 7.307 0 007.501 0a7.306 7.306 0 00-5.2 2.154C-.27 4.724-.59 9.561 1.607 12.491L7.501 21l5.883-8.498c2.207-2.941 1.888-7.778-.683-10.348zm.061 9.9l-5.261 7.598-5.27-7.61C.237 9.384.523 5.016 2.843 2.696A6.544 6.544 0 017.501.767c1.76 0 3.413.685 4.658 1.93 2.32 2.32 2.606 6.687.603 9.357z"/></svg><svg fill="none" viewBox="0 0 80 80" id="bench" xmlns="http://www.w3.org/2000/svg"><path d="M73.333 45.333c.738 0 1.334-.597 1.334-1.333v-5.333c0-.736-.596-1.334-1.334-1.334h-6.666V36A1.333 1.333 0 1064 36v1.333H26.667V36A1.334 1.334 0 0024 36v1.333h-6.667c-.735 0-1.333.598-1.333 1.334V44c0 .736.598 1.333 1.333 1.333h56zm-54.666-2.666V40H72v2.667H18.667zM48 29.333c-2.156 0-3.55 1.639-3.701 1.827a1.326 1.326 0 00.188 1.861 1.34 1.34 0 001.874-.17c.006-.01.728-.85 1.639-.85.91 0 1.632.84 1.632.84a1.332 1.332 0 001.876.194 1.332 1.332 0 00.193-1.875c-.152-.188-1.545-1.827-3.701-1.827z" fill="#D4C17F"/><path d="M73.333 56c.738 0 1.334-.597 1.334-1.333v-5.334c0-.736-.596-1.333-1.334-1.333h-6.666v-1.333a1.333 1.333 0 10-2.667 0V48H26.667v-1.333a1.334 1.334 0 00-2.667 0V48h-6.667c-.735 0-1.333.597-1.333 1.333v5.334c0 .736.598 1.333 1.333 1.333h56zm-54.666-2.667v-2.666H72v2.666H18.667zM54.965 26.173a1.33 1.33 0 001.876.195 1.332 1.332 0 00.194-1.875c-.152-.188-1.546-1.826-3.702-1.826-2.156 0-3.55 1.638-3.701 1.826a1.326 1.326 0 00.188 1.862c.565.47 1.401.386 1.873-.17.007-.01.73-.852 1.64-.852.911 0 1.632.84 1.632.84zM1.34 17.467c.068.681.641 1.2 1.327 1.2h8c.685 0 1.258-.519 1.326-1.2l1.334-13.334A1.333 1.333 0 0012 2.667H8V1.333a1.334 1.334 0 00-2.666 0v1.334h-4A1.332 1.332 0 00.007 4.133L1.34 17.467zm9.187-12.134L9.46 16H3.873L2.807 5.333h7.72z" fill="#D4C17F"/><path d="M37.333 30.667c0 1.49.61 2.877 1.716 3.902a1.33 1.33 0 001.884-.07c.5-.54.47-1.385-.07-1.886A2.628 2.628 0 0140 30.667a2.67 2.67 0 011.75-2.491 1.336 1.336 0 00.445-2.23A2.628 2.628 0 0141.334 24c0-1.387 1.092-2.547 2.486-2.643a1.332 1.332 0 00.892-2.23A2.654 2.654 0 0144 17.333c0-1.386 1.092-2.546 2.485-2.642a1.332 1.332 0 00.892-2.231 2.66 2.66 0 01-.71-1.793c0-1.192.812-2.244 1.973-2.559a1.332 1.332 0 00.89-1.783 2.689 2.689 0 01-.197-.992A2.67 2.67 0 0152 2.667a2.67 2.67 0 012.667 2.666c0 .332-.067.666-.196.992a1.332 1.332 0 00.89 1.783 2.664 2.664 0 011.973 2.559 2.66 2.66 0 01-.711 1.793 1.334 1.334 0 00.892 2.23c1.393.097 2.485 1.257 2.485 2.643a2.66 2.66 0 01-.71 1.794 1.334 1.334 0 00.892 2.23c1.393.096 2.485 1.256 2.485 2.643 0 .74-.305 1.432-.863 1.947a1.335 1.335 0 00.447 2.229 2.67 2.67 0 011.75 2.49 1.333 1.333 0 102.666 0 5.334 5.334 0 00-1.979-4.129A5.26 5.26 0 0065.334 24c0-2.085-1.227-3.918-3.016-4.784a5.25 5.25 0 00.35-1.883c0-2.085-1.228-3.917-3.017-4.784a5.25 5.25 0 00.35-1.883 5.33 5.33 0 00-2.715-4.629A5.34 5.34 0 0052 0a5.339 5.339 0 00-5.285 6.037A5.33 5.33 0 0044 10.667c0 .648.12 1.285.35 1.882-1.79.867-3.017 2.699-3.017 4.784 0 .648.12 1.286.35 1.883-1.79.867-3.016 2.699-3.016 4.784 0 .903.224 1.768.645 2.538a5.333 5.333 0 00-1.979 4.129z" fill="#D4C17F"/><path d="M50.159 18.561a1.338 1.338 0 001.741-.72 2.06 2.06 0 01.1-.204c.038.067.072.136.097.199a1.335 1.335 0 002.472-1.004c-.148-.361-.96-2.165-2.569-2.165-1.608 0-2.421 1.804-2.57 2.165a1.33 1.33 0 00.729 1.73zM78.667 77.333H57.333a1.333 1.333 0 100 2.667h21.334a1.333 1.333 0 100-2.667zM78.667 58.667h-12v-1.334a1.333 1.333 0 10-2.667 0v1.334H26.667v-1.334a1.334 1.334 0 00-2.667 0v1.334H12c-.736 0-1.333.597-1.333 1.333v5.333c0 .736.597 1.334 1.333 1.334h4v6.666a1.334 1.334 0 002.667 0v-6.666H72v6.666a1.333 1.333 0 102.667 0v-6.666h4c.737 0 1.333-.598 1.333-1.334V60c0-.736-.596-1.333-1.333-1.333zM77.333 64h-64v-2.667h64V64z" fill="#D4C17F"/><path d="M20 77.333H8V22.667a1.334 1.334 0 00-2.667 0v54.666h-4a1.334 1.334 0 000 2.667H20a1.334 1.334 0 000-2.667zM52 77.333h-2.667a1.333 1.333 0 100 2.667H52a1.333 1.333 0 100-2.667zM41.333 77.333H28A1.334 1.334 0 0028 80h13.333a1.333 1.333 0 100-2.667z" fill="#D4C17F"/></svg><svg fill="none" viewBox="0 0 80 80" id="bicycle" xmlns="http://www.w3.org/2000/svg"><path d="M20 68.001H1.333a1.333 1.333 0 100 2.667H20A1.333 1.333 0 1020 68zM16 65.332c8.823 0 16-7.179 16-16 0-4.418-1.761-8.53-4.96-11.583a1.335 1.335 0 00-1.841 1.93 13.227 13.227 0 014.134 9.653c0 7.352-5.981 13.333-13.333 13.333S2.667 56.684 2.667 49.332c0-7.354 5.981-13.334 13.333-13.334a1.333 1.333 0 100-2.666c-8.822 0-16 7.177-16 16 0 8.821 7.177 16 16 16z" fill="#D4C17F"/><path d="M22.667 27.998h.676L15.64 46.701a2.662 2.662 0 00-2.307 2.63A2.67 2.67 0 0016 51.999a2.67 2.67 0 002.667-2.666c0-.611-.214-1.166-.56-1.616l7.524-18.27 8.438 12.252a1.33 1.33 0 001.854.343c.608-.419.76-1.248.341-1.855L27.87 27.998h2.798c2.205 0 4-1.794 4-4s-1.795-4-4-4h-8c-.738 0-1.333.596-1.333 1.334v5.333c0 .736.595 1.333 1.333 1.333zM24 22.665h6.667a1.334 1.334 0 010 2.667H24v-2.667zM62.667 34.665c0 .736.596 1.333 1.333 1.333 7.352 0 13.333 5.98 13.333 13.334 0 7.352-5.981 13.333-13.333 13.333s-13.333-5.982-13.333-13.333c0-3.996 1.77-7.747 4.857-10.294a1.334 1.334 0 00-1.699-2.057A15.962 15.962 0 0048 49.331c0 8.822 7.177 16 16 16s16-7.178 16-16-7.177-16-16-16c-.737 0-1.333.597-1.333 1.334zM41.333 68.001H28a1.333 1.333 0 100 2.667h13.333a1.333 1.333 0 100-2.667z" fill="#D4C17F"/><path d="M41.333 42.854v-4.189a1.333 1.333 0 100-2.667h-2.666a1.333 1.333 0 100 2.667v4.19c-2.295.595-4 2.665-4 5.143 0 2.478 1.705 4.547 4 5.145v4.189a1.333 1.333 0 100 2.666h2.666a1.333 1.333 0 100-2.666v-4.19c2.295-.597 4-2.666 4-5.144s-1.705-4.548-4-5.144zM40 50.665a2.67 2.67 0 01-2.667-2.667A2.67 2.67 0 0140 45.332a2.67 2.67 0 012.667 2.666A2.67 2.67 0 0140 50.665zM61.945 47.652a2.646 2.646 0 00-.612 1.68A2.67 2.67 0 0064 51.998a2.67 2.67 0 002.667-2.666c0-1.32-.967-2.41-2.226-2.623l-6.017-16.044h9.519c1.596 0 2.524-1.276 2.698-2.405l1.332-6.667a1.331 1.331 0 00-1.306-1.595h-12a1.332 1.332 0 100 2.667H69.04l-1.019 5.101c-.02.092-.077.222-.078.232H57.424L53.25 16.864c-.002-.006-.006-.008-.007-.014-.003-.005-.002-.01-.003-.014l-2.667-6.667a1.334 1.334 0 00-2.477.99l2.43 6.068-5.015 8.776a1.331 1.331 0 001.156 1.995 1.33 1.33 0 001.158-.672l3.925-6.868 3.208 8.556-10.161 11.43a1.332 1.332 0 101.992 1.773l9.228-10.38 5.93 15.815zM78.667 68.001H57.333a1.333 1.333 0 100 2.667h21.334a1.333 1.333 0 100-2.667zM52 68.001h-2.667a1.333 1.333 0 100 2.667H52A1.333 1.333 0 1052 68z" fill="#D4C17F"/></svg><svg fill="none" viewBox="0 0 80 80" id="building" xmlns="http://www.w3.org/2000/svg"><path d="M57.333 74.667H20c-.736 0-1.333.597-1.333 1.333v2.667a1.334 1.334 0 002.666 0v-1.334h36a1.334 1.334 0 000-2.666zM29.333 33.333c0 .736.598 1.334 1.334 1.334H36c.736 0 1.333-.598 1.333-1.334v-8c0-.736-.597-1.333-1.333-1.333h-5.333c-.736 0-1.334.597-1.334 1.333v8zM32 26.667h2.667V32H32v-5.333zM17.333 16h-16C.597 16 0 16.597 0 17.333V44a1.334 1.334 0 002.667 0V18.667h14.666a1.334 1.334 0 000-2.667zM64 65.333c0 .736.597 1.334 1.333 1.334h5.334c.736 0 1.333-.598 1.333-1.334v-8c0-.736-.597-1.333-1.333-1.333h-5.334c-.736 0-1.333.597-1.333 1.333v8zm2.667-6.666h2.666V64h-2.666v-5.333zM6.667 48C.076 48 0 65.16 0 65.333c0 3.22 2.295 5.912 5.333 6.532v6.802a1.334 1.334 0 002.667 0v-6.802c3.038-.62 5.333-3.312 5.333-6.532 0-.173-.076-17.333-6.666-17.333zm0 21.333c-2.206 0-4-1.794-4-4 0-6.642 1.784-14.666 4-14.666s4 8.024 4 14.666c0 2.206-1.795 4-4 4zM14.667 40H9.333C8.597 40 8 40.597 8 41.333V44a1.334 1.334 0 002.667 0v-1.333h2.666v6.666a1.334 1.334 0 002.667 0v-8c0-.736-.597-1.333-1.333-1.333zM65.333 34.667h5.334c.736 0 1.333-.598 1.333-1.334v-8c0-.735-.597-1.333-1.333-1.333h-5.334c-.736 0-1.333.598-1.333 1.333v8c0 .736.597 1.334 1.333 1.334zm1.334-8h2.666V32h-2.666v-5.333z" fill="#D4C17F"/><path d="M14.667 24H9.333C8.597 24 8 24.597 8 25.333v8c0 .736.597 1.334 1.333 1.334h5.334c.736 0 1.333-.598 1.333-1.334v-8c0-.736-.597-1.333-1.333-1.333zm-1.334 8h-2.666v-5.333h2.666V32zM42.667 33.333c0 .736.597 1.334 1.333 1.334h5.333c.736 0 1.334-.598 1.334-1.334v-8c0-.736-.598-1.333-1.334-1.333H44c-.736 0-1.333.597-1.333 1.333v8zm2.666-6.666H48V32h-2.667v-5.333zM78.667 16h-16a1.334 1.334 0 000 2.667h14.666v53.578A3.946 3.946 0 0076 72c-.23 0-.46.02-.685.06a5.295 5.295 0 00-4.648-2.727 5.295 5.295 0 00-4.648 2.727A4.005 4.005 0 0061.334 76c0 2.205 1.794 4 4 4H76c2.205 0 4-1.795 4-4V17.333c0-.736-.597-1.333-1.333-1.333zM76 77.333H65.333A1.335 1.335 0 0164 76c0-.735.599-1.333 1.333-1.333.256 0 .499.073.723.217.365.235.821.277 1.224.115.403-.163.7-.512.797-.935A2.65 2.65 0 0170.667 72a2.65 2.65 0 012.59 2.064c.096.423.394.772.796.935.402.162.859.12 1.225-.115.867-.56 2.055.125 2.055 1.116 0 .735-.598 1.333-1.333 1.333zM44 18.667h5.333c.736 0 1.334-.598 1.334-1.334v-8c0-.735-.598-1.333-1.334-1.333H44c-.736 0-1.333.598-1.333 1.333v8c0 .736.597 1.334 1.333 1.334zm1.333-8H48V16h-2.667v-5.333zM42.667 49.333c0 .736.597 1.334 1.333 1.334h5.333c.736 0 1.334-.598 1.334-1.334v-8c0-.736-.598-1.333-1.334-1.333H44c-.736 0-1.333.597-1.333 1.333v8zm2.666-6.666H48V48h-2.667v-5.333zM30.667 18.667H36c.736 0 1.333-.598 1.333-1.334v-8C37.333 8.598 36.736 8 36 8h-5.333c-.736 0-1.334.598-1.334 1.333v8c0 .736.598 1.334 1.334 1.334zm1.333-8h2.667V16H32v-5.333zM39.053 64.387c-.24.253-.386.6-.386.946 0 .347.146.694.386.947.254.24.6.387.947.387s.693-.147.947-.387c.24-.253.386-.6.386-.947 0-.346-.146-.693-.386-.946-.507-.494-1.387-.494-1.894 0zM29.333 49.333c0 .736.598 1.334 1.334 1.334H36c.736 0 1.333-.598 1.333-1.334v-8c0-.736-.597-1.333-1.333-1.333h-5.333c-.736 0-1.334.597-1.334 1.333v8zM32 42.667h2.667V48H32v-5.333z" fill="#D4C17F"/><path d="M26.667 57.333c0 .736.597 1.334 1.333 1.334h4v12a1.334 1.334 0 002.667 0v-12h10.666v12a1.334 1.334 0 002.667 0v-12h4A1.334 1.334 0 0052 56H28c-.736 0-1.333.597-1.333 1.333zM64 49.333c0 .736.597 1.334 1.333 1.334h5.334c.736 0 1.333-.598 1.333-1.334v-8c0-.736-.597-1.333-1.333-1.333h-5.334c-.736 0-1.333.597-1.333 1.333v8zm2.667-6.666h2.666V48h-2.666v-5.333z" fill="#D4C17F"/><path d="M57.333 0H22.667c-.736 0-1.334.597-1.334 1.333v69.334a1.334 1.334 0 002.667 0v-68h32v68a1.334 1.334 0 002.667 0V1.333C58.667.597 58.069 0 57.333 0z" fill="#D4C17F"/></svg><svg fill="none" viewBox="0 0 20 20" id="facebook" xmlns="http://www.w3.org/2000/svg"><path d="M15 .004L12.405 0C9.492 0 7.609 1.932 7.609 4.922v2.27H5.001a.408.408 0 00-.407.407v3.288c0 .226.182.408.407.408H7.61v8.297c0 .226.183.408.408.408h3.402a.408.408 0 00.408-.408v-8.297h3.05a.408.408 0 00.407-.408l.001-3.288a.408.408 0 00-.408-.408h-3.05V5.268c0-.925.22-1.394 1.425-1.394l1.747-.001a.408.408 0 00.408-.408V.412a.408.408 0 00-.408-.408z" fill="#fff"/></svg><svg fill="none" viewBox="0 0 80 80" id="fountain" xmlns="http://www.w3.org/2000/svg"><g clip-path="url(#fclip0_5_2)"><path d="M53.39 4.622c.182 0 .366-.037.543-.117.382-.171.768-.332 1.16-.48a1.332 1.332 0 00.774-1.72 1.337 1.337 0 00-1.72-.775c-.44.168-.877.35-1.304.541a1.332 1.332 0 00.546 2.55zM53.333 33.538c.738 0 1.334-.596 1.334-1.333v-.231c0-.35.022-.695.066-1.033.096-.731-.418-1.4-1.146-1.496a1.324 1.324 0 00-1.498 1.148c-.058.45-.09.916-.09 1.381v.23c.001.738.597 1.334 1.334 1.334zM46.667 33.867c.737 0 1.333-.597 1.333-1.333v-1.355a1.333 1.333 0 10-2.667 0v1.355c0 .736.596 1.333 1.334 1.333zM54.323 12.778c-.43.236-.85.49-1.254.761a1.332 1.332 0 101.481 2.216c.344-.228.697-.442 1.06-.642.644-.355.88-1.167.525-1.811a1.335 1.335 0 00-1.812-.524zM35.41 12.642a1.33 1.33 0 001.837.42 1.332 1.332 0 00.421-1.837 23.51 23.51 0 00-.788-1.178 1.333 1.333 0 00-2.17 1.552c.245.34.478.688.7 1.043zM59.788 2.822c.055 0 .112-.004.168-.01.412-.053.83-.093 1.25-.122A1.334 1.334 0 0062.45 1.27 1.338 1.338 0 0061.031.03c-.475.03-.944.077-1.408.136a1.333 1.333 0 00.165 2.656zM54.844 24.722a1.335 1.335 0 001.956 1.813c.277-.299.583-.581.908-.84a1.332 1.332 0 00.215-1.873 1.332 1.332 0 00-1.874-.215c-.43.341-.836.718-1.205 1.115zM42.752 13.062a1.33 1.33 0 001.837-.42c.223-.355.456-.703.7-1.043a1.333 1.333 0 00-2.17-1.552 22.59 22.59 0 00-.787 1.178 1.333 1.333 0 00.42 1.837zM53.333 39.974c.738 0 1.334-.597 1.334-1.333v-.667a1.333 1.333 0 10-2.667 0v.667c0 .736.596 1.333 1.333 1.333zM46.639 27.091a1.337 1.337 0 001.503-1.141c.054-.411.127-.816.218-1.216a1.333 1.333 0 00-2.601-.59 17.32 17.32 0 00-.262 1.447 1.334 1.334 0 001.142 1.5zM37.561 17.18c.134.394.254.793.364 1.198a1.335 1.335 0 001.636.936c.166-.044.31-.124.439-.219a1.317 1.317 0 00.79.267c.584 0 1.123-.39 1.285-.984.11-.405.229-.804.363-1.199a1.333 1.333 0 00-.832-1.692c-.64-.218-1.314.095-1.606.687-.292-.592-.967-.905-1.607-.687a1.332 1.332 0 00-.832 1.692zM47.785 8.208c.311 0 .623-.108.875-.326.316-.275.64-.542.97-.796a1.333 1.333 0 00-1.625-2.114c-.374.288-.74.587-1.094.898a1.333 1.333 0 00.874 2.338zM48.821 17.542c-.293.39-.57.792-.83 1.205a1.335 1.335 0 001.126 2.044c.443 0 .876-.22 1.13-.622.221-.351.456-.692.705-1.022a1.335 1.335 0 00-2.13-1.605zM61.303 10.694a16.73 16.73 0 00-1.458.175 1.334 1.334 0 00.432 2.631 14.47 14.47 0 011.231-.148 1.334 1.334 0 001.227-1.433 1.32 1.32 0 00-1.432-1.225zM66.236 2.92c.415.067.828.146 1.236.235a1.333 1.333 0 10.57-2.604c-.458-.101-.92-.188-1.387-.263a1.33 1.33 0 00-1.526 1.107 1.33 1.33 0 001.107 1.525zM68.517 11.652c-.46-.164-.928-.31-1.401-.435a1.34 1.34 0 00-1.63.947 1.334 1.334 0 00.947 1.631c.401.105.796.228 1.183.368a1.333 1.333 0 10.901-2.51zM62.124 21.32a1.333 1.333 0 00-1.265 1.398c.036.736.613 1.296 1.397 1.265a8.33 8.33 0 011.237.033 1.334 1.334 0 10.273-2.653 10.736 10.736 0 00-1.642-.043zM77.681 8.872a1.331 1.331 0 001.884.087c.544-.496.583-1.34.087-1.884-.16-.175-.323-.347-.487-.515a1.333 1.333 0 00-1.907 1.867c.145.145.286.295.423.445z" fill="#D4C17F"/><g filter="url(#ffilter0_d_5_2)"><path d="M57.333 50.64h-16a1.333 1.333 0 100 2.667h16c3.739 0 6.667-2.928 6.667-6.667v-2.666c0-.736-.596-1.334-1.333-1.334H17.333c-.737 0-1.333.598-1.333 1.334v2.666c0 3.739 2.928 6.667 6.667 6.667h12v6.667a1.333 1.333 0 102.666 0v-8c0-.736-.596-1.334-1.333-1.334H22.667c-2.244 0-4-1.757-4-4v-1.333h42.666v1.333c0 2.243-1.756 4-4 4z" fill="#D4C17F"/></g><path d="M70.647 31.402c.013.188.02.38.02.572a1.333 1.333 0 102.666 0c0-.256-.01-.51-.028-.762a1.326 1.326 0 00-1.424-1.235 1.334 1.334 0 00-1.234 1.425zM67.83 24.083a1.335 1.335 0 00.12 1.883c.309.272.598.57.86.884a1.333 1.333 0 002.049-1.707 10.63 10.63 0 00-1.147-1.178 1.333 1.333 0 00-1.881.118zM41.333 30.566a1.333 1.333 0 10-2.666 0v1.482a1.333 1.333 0 102.666 0v-1.482zM40 36.64c-.737 0-1.333.598-1.333 1.334v.666a1.333 1.333 0 102.666 0v-.666c0-.736-.596-1.334-1.333-1.334zM45.333 38.64a1.333 1.333 0 102.667 0v-.666a1.333 1.333 0 10-2.667 0v.666zM41.333 23.974c0-.21.003-.419.01-.628a1.326 1.326 0 00-.83-1.263c-.051-.022-.109-.022-.162-.038-.1-.027-.195-.067-.303-.07l-.04-.001-.008.001-.008-.001-.04.001c-.108.003-.204.043-.303.07-.053.016-.112.016-.161.038a1.325 1.325 0 00-.83 1.263c.006.21.009.417.009.628v.667a1.333 1.333 0 102.666 0v-.667zM32 38.64a1.333 1.333 0 102.667 0v-.666a1.333 1.333 0 10-2.667 0v.666zM33.333 33.867c.738 0 1.334-.597 1.334-1.333v-1.355a1.333 1.333 0 10-2.667 0v1.355c0 .736.596 1.333 1.333 1.333zM28 38.64v-.666a1.333 1.333 0 10-2.666 0v.666a1.333 1.333 0 102.666 0zM9.312 27.022a1.333 1.333 0 001.879-.172c.261-.315.55-.612.86-.884.552-.488.605-1.33.118-1.883a1.33 1.33 0 00-1.881-.119c-.412.363-.799.76-1.148 1.18a1.336 1.336 0 00.172 1.878zM73.333 63.974h-28v-6.667a1.333 1.333 0 10-2.666 0v8c0 .736.596 1.333 1.333 1.333h28v6.667c0 2.205-1.795 4-4 4H12c-2.205 0-4-1.795-4-4V66.64h30.777a1.333 1.333 0 100-2.666H6.667c-.738 0-1.334.597-1.334 1.333v8A6.674 6.674 0 0012 79.974h56a6.674 6.674 0 006.667-6.667v-8c0-.736-.596-1.333-1.334-1.333z" fill="#D4C17F"/><path d="M32 70.64v2.667a1.333 1.333 0 102.667 0V70.64a1.333 1.333 0 10-2.667 0zM1.393 25.975l-.048-.001c-.713 0-1.306.566-1.33 1.286-.01.238-.015.475-.015.714a1.333 1.333 0 102.667 0c0-.208.005-.414.012-.62a1.332 1.332 0 00-1.286-1.379zM7.153 17.414c.299-.288.61-.563.93-.824a1.332 1.332 0 10-1.687-2.066c-.377.31-.744.634-1.093.973a1.333 1.333 0 101.85 1.917zM3.628 19.603a1.334 1.334 0 00-1.79.595c-.218.434-.42.881-.602 1.336a1.334 1.334 0 002.476.99c.153-.385.324-.762.51-1.132a1.332 1.332 0 00-.594-1.789zM6.03 5.563c.225 0 .454-.057.663-.177.362-.208.728-.404 1.103-.587.66-.325.932-1.125.608-1.785a1.335 1.335 0 00-1.785-.608c-.427.21-.846.432-1.256.668a1.334 1.334 0 00.666 2.49zM18.667 70.64v2.667a1.333 1.333 0 102.666 0V70.64a1.333 1.333 0 10-2.666 0zM78.021 23.267a1.334 1.334 0 00.743-1.733 16.986 16.986 0 00-.603-1.336 1.332 1.332 0 10-2.383 1.195c.186.369.357.746.51 1.132a1.333 1.333 0 001.733.742zM79.985 27.26c-.024-.737-.677-1.328-1.378-1.285a1.332 1.332 0 00-1.286 1.379c.007.206.012.412.012.62a1.333 1.333 0 102.667 0c0-.239-.005-.476-.015-.714zM74.636 3.074c-.41-.236-.828-.459-1.255-.668a1.338 1.338 0 00-1.785.608c-.324.66-.052 1.46.608 1.785.375.183.741.379 1.101.587a1.335 1.335 0 001.33-2.312zM61.333 73.307V70.64a1.333 1.333 0 10-2.666 0v2.667a1.333 1.333 0 102.666 0zM48 73.307V70.64a1.333 1.333 0 10-2.666 0v2.667a1.333 1.333 0 102.666 0zM73.604 14.524a1.333 1.333 0 00-1.688 2.065c.321.262.632.537.93.825a1.332 1.332 0 101.85-1.917c-.348-.34-.715-.663-1.092-.973zM8.119 29.977a1.321 1.321 0 00-1.426 1.235c-.017.253-.026.506-.026.762a1.333 1.333 0 102.666 0c0-.192.007-.384.02-.572a1.334 1.334 0 00-1.234-1.425zM26.413 29.445a1.334 1.334 0 00-1.146 1.495c.044.339.066.683.066 1.034v.23c0 .738.596 1.334 1.334 1.334.737 0 1.333-.596 1.333-1.334v-.23c0-.466-.03-.93-.09-1.382a1.327 1.327 0 00-1.497-1.147zM24.907 4.025c.392.147.778.309 1.16.48a1.333 1.333 0 001.09-2.433 24.46 24.46 0 00-1.305-.542 1.338 1.338 0 00-1.718.775 1.332 1.332 0 00.773 1.72zM24.39 15.113c.362.2.717.414 1.06.642a1.333 1.333 0 101.481-2.216c-.406-.27-.824-.525-1.254-.761a1.335 1.335 0 00-1.812.524 1.335 1.335 0 00.526 1.81zM1.333 9.307c.362 0 .723-.147.986-.435.137-.15.279-.3.422-.445A1.334 1.334 0 00.835 6.561c-.164.168-.327.34-.487.514a1.334 1.334 0 00.985 2.232zM22.292 25.695c.325.259.63.541.908.84a1.334 1.334 0 101.956-1.813c-.37-.398-.775-.774-1.205-1.115a1.333 1.333 0 10-1.659 2.088zM29.753 20.168a1.331 1.331 0 001.84.419c.622-.393.81-1.217.417-1.84a18.475 18.475 0 00-.831-1.205 1.336 1.336 0 00-1.868-.263 1.335 1.335 0 00-.263 1.868c.25.33.484.67.705 1.021zM30.37 7.086c.33.254.654.521.97.796.252.22.564.326.875.326a1.333 1.333 0 00.875-2.339c-.355-.31-.72-.609-1.095-.897a1.334 1.334 0 00-1.625 2.113zM12.241 3.186c.095 0 .19-.01.286-.03.41-.09.822-.169 1.237-.236a1.331 1.331 0 001.107-1.525A1.327 1.327 0 0013.345.288c-.468.075-.93.162-1.388.263a1.333 1.333 0 00.284 2.635zM18.793 2.69c.422.03.839.07 1.251.121a1.333 1.333 0 10.333-2.645A23.175 23.175 0 0018.971.03a1.34 1.34 0 00-1.42 1.241 1.334 1.334 0 001.242 1.419zM32.645 23.14a1.333 1.333 0 00-1.006 1.594c.092.4.164.805.22 1.216a1.336 1.336 0 001.501 1.141 1.334 1.334 0 001.143-1.5c-.067-.488-.155-.97-.262-1.447a1.337 1.337 0 00-1.596-1.005zM11.933 14.242c.15 0 .302-.026.451-.079.387-.14.781-.262 1.183-.368a1.335 1.335 0 00.948-1.63 1.338 1.338 0 00-1.631-.948c-.473.125-.941.272-1.401.436a1.333 1.333 0 00.45 2.589zM18.492 13.352c.415.032.824.082 1.23.148a1.33 1.33 0 001.53-1.099 1.334 1.334 0 00-1.097-1.532 16.805 16.805 0 00-1.458-.175 1.332 1.332 0 10-.205 2.658zM16.368 24.023c.045 0 .092-.001.139-.007a8.317 8.317 0 011.237-.033 1.315 1.315 0 001.397-1.265 1.333 1.333 0 00-1.265-1.398 10.7 10.7 0 00-1.643.043 1.334 1.334 0 00.135 2.66z" fill="#D4C17F"/></g><defs><clipPath id="fclip0_5_2"><path fill="#fff" d="M0 0h80v80H0z"/></clipPath><filter id="ffilter0_d_5_2" x="12" y="42.64" width="56" height="26.667" filterUnits="userSpaceOnUse" color-interpolation-filters="sRGB"><feFlood flood-opacity="0" result="BackgroundImageFix"/><feColorMatrix in="SourceAlpha" values="0 0 0 0 0 0 0 0 0 0 0 0 0 0 0 0 0 0 127 0" result="hardAlpha"/><feOffset dy="4"/><feGaussianBlur stdDeviation="2"/><feComposite in2="hardAlpha" operator="out"/><feColorMatrix values="0 0 0 0 0 0 0 0 0 0 0 0 0 0 0 0 0 0 0.25 0"/><feBlend in2="BackgroundImageFix" result="effect1_dropShadow_5_2"/><feBlend in="SourceGraphic" in2="effect1_dropShadow_5_2" result="shape"/></filter></defs></svg><svg fill="none" viewBox="0 0 20 20" id="instagram" xmlns="http://www.w3.org/2000/svg"><path d="M13.75 0h-7.5A6.25 6.25 0 000 6.25v7.5A6.25 6.25 0 006.25 20h7.5A6.25 6.25 0 0020 13.75v-7.5A6.25 6.25 0 0013.75 0zm4.375 13.75a4.38 4.38 0 01-4.375 4.375h-7.5a4.38 4.38 0 01-4.375-4.375v-7.5A4.38 4.38 0 016.25 1.875h7.5a4.38 4.38 0 014.375 4.375v7.5z" fill="#fff"/><path d="M10 5a5 5 0 100 10 5 5 0 000-10zm0 8.125A3.13 3.13 0 016.875 10 3.129 3.129 0 0110 6.875 3.129 3.129 0 0113.125 10 3.13 3.13 0 0110 13.125zM15.375 5.291a.666.666 0 100-1.332.666.666 0 000 1.332z" fill="#fff"/></svg><svg fill="none" viewBox="0 0 40 40" id="mouse" xmlns="http://www.w3.org/2000/svg"><g clip-path="url(#clip0_1_20)" fill="#D4C17F"><path d="M19.969 0C13.48 0 8.203 5.278 8.203 11.766v16.468C8.203 34.722 13.481 40 19.97 40s11.766-5.278 11.766-11.766V11.766C31.735 5.278 26.457 0 19.969 0zm9.366 28.234c0 5.164-4.202 9.366-9.366 9.366s-9.366-4.202-9.366-9.366V11.766c0-5.164 4.202-9.366 9.366-9.366s9.366 4.202 9.366 9.366v16.468z"/><path d="M19.97 7.957a1.2 1.2 0 00-1.2 1.2v5.523a1.2 1.2 0 002.4 0V9.157a1.2 1.2 0 00-1.2-1.2z"/></g></svg><svg viewBox="0 0 21 21" id="phone" xmlns="http://www.w3.org/2000/svg"><path d="M20.986 17.284a1.611 1.611 0 00-.799-1.194l-5.18-2.983a1.626 1.626 0 00-1.958.26l-1.02 1.02a.748.748 0 01-1 .056 29.49 29.49 0 01-2.354-2.118 29.52 29.52 0 01-2.117-2.354.748.748 0 01.056-1l1.02-1.02a1.625 1.625 0 00.259-1.957L4.91.814a1.611 1.611 0 00-1.194-.8 1.61 1.61 0 00-1.36.461L.818 2.013C-.255 3.086-.272 5.049.77 7.54c1.002 2.395 2.871 5.032 5.264 7.425 2.393 2.393 5.03 4.263 7.426 5.264 1.226.513 2.324.77 3.252.77.956 0 1.73-.273 2.275-.818l1.538-1.538c.36-.36.528-.855.461-1.36zm-6.319-3.587l5.18 2.983c.257.147.426.4.465.693a.934.934 0 01-.176.683l-6.885-3.93.28-.279c.3-.3.768-.362 1.136-.15zM3.627.688a.936.936 0 01.693.465l2.983 5.18a.944.944 0 01-.15 1.137l-.257.257L2.946.865a.931.931 0 01.681-.177zm14.88 19.013c-.853.852-2.597.817-4.785-.098-2.316-.969-4.875-2.786-7.207-5.118-2.332-2.332-4.15-4.891-5.117-7.207C.483 5.09.447 3.347 1.299 2.494l1.142-1.142 3.957 6.873-.265.266a1.427 1.427 0 00-.105 1.906 30.17 30.17 0 002.166 2.41 30.202 30.202 0 002.409 2.165c.57.459 1.389.414 1.907-.104l.242-.242 6.894 3.935-1.14 1.14z"/></svg><svg fill="none" viewBox="0 0 100 100" id="play-button" xmlns="http://www.w3.org/2000/svg"><path d="M50 0C22.386 0 0 22.386 0 50s22.386 50 50 50 50-22.386 50-50S77.614 0 50 0zm17.281 52.65l-25 15.625a3.126 3.126 0 01-4.781-2.65v-31.25a3.124 3.124 0 014.781-2.65l25 15.625A3.129 3.129 0 0168.75 50a3.128 3.128 0 01-1.469 2.65z" fill="#D4C17F"/></svg><svg fill="none" viewBox="0 0 36 20" id="vk" xmlns="http://www.w3.org/2000/svg"><path d="M34.868 18.062a2.402 2.402 0 00-.118-.228c-.609-1.095-1.77-2.44-3.486-4.034l-.037-.036-.018-.018-.018-.019h-.019c-.778-.742-1.271-1.24-1.478-1.496-.377-.487-.462-.98-.256-1.479.146-.377.694-1.174 1.643-2.39.499-.646.894-1.162 1.186-1.552 2.105-2.799 3.018-4.587 2.738-5.366l-.109-.182c-.073-.11-.261-.21-.565-.301-.305-.091-.694-.106-1.169-.045l-5.256.036c-.085-.03-.207-.028-.365.009l-.237.055-.092.046-.072.055a.811.811 0 00-.201.191 1.252 1.252 0 00-.182.32 29.798 29.798 0 01-1.954 4.106c-.45.754-.863 1.408-1.24 1.962-.378.553-.694.961-.95 1.223a6.615 6.615 0 01-.693.63c-.207.158-.365.225-.475.2-.11-.024-.212-.049-.31-.073a1.214 1.214 0 01-.41-.447 2.004 2.004 0 01-.21-.712 7.87 7.87 0 01-.065-.74c-.005-.206-.003-.498.01-.875.012-.378.018-.633.018-.767 0-.462.01-.964.027-1.506.019-.541.033-.97.046-1.286.012-.317.018-.651.018-1.004s-.021-.63-.064-.83a2.84 2.84 0 00-.191-.585.983.983 0 00-.374-.438 2.11 2.11 0 00-.612-.246c-.645-.146-1.466-.225-2.464-.237-2.263-.025-3.717.121-4.362.438a2.458 2.458 0 00-.693.547c-.22.268-.25.414-.092.438.73.11 1.247.371 1.552.785l.11.219c.085.158.17.438.255.84.085.401.14.845.164 1.332.06.888.06 1.648 0 2.281a27.266 27.266 0 01-.173 1.478c-.055.353-.137.64-.247.858a3.62 3.62 0 01-.219.402.314.314 0 01-.091.09c-.158.062-.323.092-.493.092-.17 0-.377-.085-.62-.255a4.378 4.378 0 01-.758-.703c-.261-.298-.556-.715-.885-1.25A21.825 21.825 0 019.29 5.697l-.292-.53c-.183-.34-.432-.836-.748-1.487a28.684 28.684 0 01-.84-1.89 1.203 1.203 0 00-.438-.583l-.091-.055a1.25 1.25 0 00-.292-.155 1.937 1.937 0 00-.42-.119l-5 .036c-.512 0-.858.116-1.041.347l-.073.11A.59.59 0 000 1.663c0 .134.037.298.11.493A60.23 60.23 0 002.49 7.12c.858 1.594 1.603 2.878 2.236 3.85a45.499 45.499 0 001.935 2.757c.657.864 1.092 1.417 1.304 1.66.213.244.38.426.503.548l.456.438c.292.292.72.642 1.286 1.05.566.407 1.193.809 1.88 1.205.688.395 1.488.717 2.4.966.913.25 1.801.35 2.665.302h2.1c.425-.037.747-.17.967-.402l.072-.091c.049-.073.095-.186.137-.337a1.85 1.85 0 00.064-.502 6.009 6.009 0 01.118-1.415c.091-.42.195-.736.31-.949.117-.213.248-.392.393-.538.146-.146.25-.234.31-.265.062-.03.11-.051.146-.063.292-.098.636-.003 1.032.283.395.286.766.639 1.113 1.058.347.42.764.892 1.25 1.415.487.523.913.912 1.278 1.168l.365.219c.244.146.56.28.95.401.388.122.729.152 1.021.092l4.672-.073c.462 0 .822-.077 1.077-.229.256-.152.407-.32.456-.502.05-.182.052-.389.01-.62a2.295 2.295 0 00-.129-.484z" fill="#fff"/></svg><svg fill="none" viewBox="0 0 29 20" id="youtube" xmlns="http://www.w3.org/2000/svg"><path d="M22.394 0H5.87A5.87 5.87 0 000 5.87v8.26A5.87 5.87 0 005.87 20h16.524a5.87 5.87 0 005.87-5.87V5.87A5.87 5.87 0 0022.393 0zm-3.97 10.402l-7.729 3.686a.31.31 0 01-.444-.28V6.205a.31.31 0 01.45-.276l7.73 3.916a.31.31 0 01-.007.557z" fill="#fff"/></svg></svg>